<?xml version="1.0" encoding="utf-8"?>
<!-- Generator: Adobe Illustrator 16.0.4, SVG Export Plug-In . SVG Version: 6.00 Build 0)  -->
<!DOCTYPE svg PUBLIC "-//W3C//DTD SVG 1.1//EN" "http://www.w3.org/Graphics/SVG/1.1/DTD/svg11.dtd">
<svg version="1.1" id="Layer_1" xmlns="http://www.w3.org/2000/svg" xmlns:xlink="http://www.w3.org/1999/xlink" x="0px" y="0px"
	 width="470.969px" height="75.946px" viewBox="0 0 470.969 75.946" enable-background="new 0 0 470.969 75.946"
	 xml:space="preserve">
<g>
	<path fill="#646168" d="M15.444,41.153c-0.545-0.09-0.816,0-1.09,0.545c-1.363,3.09-3.452,6.178-4.814,7.904
		c-2.727,3.635-4.997,4.361-6.633,4.361C1.362,53.964,0,53.146,0,51.421c0-0.91,0.545-2.182,1.636-2.908
		c0.636-0.545,1.09-0.453,1.453-0.363c0.272,0.182,0.727,0.271,1.454,0.271c1.636,0,4.905-1.453,9.357-10.992
		c2.544-5.906,4.724-11.721,5.27-14.99c0.181-1.545,0.091-2.453-0.091-3.09c-0.273-0.908-1-1.906-1.908-2.451
		c-0.908-0.455-1.727-0.729-2.908-0.729c-1.544,0-2.815,0.363-3.724,1c-0.728,0.453-1.363-0.363-0.454-1
		c2.271-1.725,5.178-2.906,7.812-2.906c3.725,0,6.36,2.18,7.814,6.451c1.18,3.361,1.906,6.086,3.36,11.629
		c1.454,5.814,3.361,11.082,5.36,14.717c1.908,3.361,3.906,4.725,5.633,4.725c0.818,0,1.636-0.182,2.453-0.545
		c0.727-0.455,1.09,0.363,0.545,0.816c-0.727,0.729-3.543,2.908-6.904,2.908c-4.088,0-6.359-3.271-7.723-6.633
		c-0.908-2.271-1.453-3.996-2.271-6.451c-0.182-0.545-0.545-0.545-1.09-0.271c-1.635,0.818-3.998,1-5.088,1
		C18.079,41.608,16.534,41.427,15.444,41.153z M24.803,38.247c0.545-0.182,0.636-0.455,0.454-1.182
		c-0.909-3.906-2.09-8.539-3.635-12.992c-0.182-0.545-0.363-0.545-0.545,0.092c-1.362,4.451-2.998,9.721-4.633,13.172
		c-0.272,0.547-0.091,0.729,0.363,0.818c1.453,0.363,2.998,0.455,4.543,0.455C22.894,38.61,24.258,38.429,24.803,38.247z"/>
	<path fill="#646168" d="M57.944,25.981c0-4.633-0.182-7.178-0.363-7.812c-0.092-0.547-0.545-0.637-1.545-0.455
		c-3.361,0.273-7.904,2.545-7.904,7.994c0,1.363,0.455,2.727,1,3.363c0.363,0.453,0.272,1.09-0.363,1.635
		c-0.727,0.727-1.727,1.182-2.635,1.182c-0.727,0-1.453-0.365-1.999-0.91c-0.545-0.545-1.09-1.727-1.09-3.27
		c0-2.635,1.907-5.906,4.814-8.178c2.817-2.27,6.542-3.633,9.085-4.178c0.545-0.182,0.728-0.182,0.728-0.363
		c0.091-0.273,0.183-0.455,0.817-0.729c1-0.453,3.543-0.816,4.543-0.816c0.908,0,1.09,0.271,1.09,0.455c0,0.18,0,0.361,0.454,0.271
		c0.637-0.092,0.999-0.092,2.271-0.092c4.271,0,7.541,0.818,9.722,2.363c2.361,1.727,3.634,4.361,3.634,8.086
		c0,3.18-1.817,5.904-3.452,7.268c-1,0.818-1.727,1.363-2.362,1.816c-0.364,0.182-0.183,1,0.091,1.545
		c3.361,5.361,8.449,12.719,16.535,20.26c7.812,7.268,14.445,10.811,22.439,10.811c5.906,0,8.54-2.635,9.722-4.088
		c0.728-0.818,1.544-0.182,0.817,0.998c-2.544,4.18-7.994,6.904-14.354,6.904c-8.267,0-16.171-3.453-25.528-13.172
		c-5.089-5.359-12.629-16.535-14.265-18.805c-0.909-1.273-1.271-1.727-4.542-1.727c-1.817,0-1.908,0.637-1.908,1.635v1.816
		c0,1.363,0,2.727,0.182,5.725c0.363,4.816,0.908,5.361,4.814,6.451c0.909,0.271,0.818,1.18-0.453,1.18
		c-2.908,0-4.725-0.271-7.269-0.271s-5.087,0.271-8.722,0.271c-1.09,0-1.09-0.998-0.182-1.18c4.906-0.729,5.723-1.273,5.996-6.543
		c0.182-2.451,0.182-3.996,0.182-5.996V25.981z M63.396,32.978c0,1.182,0.091,1.271,0.636,1.453h2.089
		c1.545,0,2.999-0.182,4.271-0.637c2.181-0.908,3.907-3.27,3.907-7.721c0-5.633-3.816-8.996-8.631-8.996
		c-1.363,0-1.727,0.184-1.908,1.363c-0.182,1.09-0.363,2.18-0.363,7.088V32.978z"/>
	<path fill="#646168" d="M102.051,18.259c4.997-3.814,11.356-4.996,15.808-4.996c4.271,0,7.541,0.727,9.631,1.908
		c1.181,0.727,1.271,1.361,1.09,2.543c-0.182,1-0.271,2.816-0.363,4.998c0,1.271-1.182,1.453-1.362,0.18
		c-0.272-1.998-1.454-3.451-3.452-4.814c-2.182-1.453-5.36-2.271-8.812-2.271c-2.727,0-5.451,0.91-7.269,2.09
		c-4.452,2.908-6.269,7.994-6.269,15.264c0,9.539,6.087,17.533,14.809,17.533c2.635,0,4.906-0.271,7.178-1.361
		c2.271-1.182,4.814-3.635,5.904-6.906c0.273-0.816,1.363-0.635,1.182,0.365c-0.454,2.543-1.182,5.814-1.727,6.994
		c-0.363,0.908-1.09,1.727-2.18,2.271c-1.817,0.727-5.906,1.908-10.448,1.908c-11.356,0-21.532-6.541-21.532-19.896
		C94.237,27.435,96.964,22.165,102.051,18.259z"/>
	<path fill="#646168" d="M162.246,30.978c7.269,0,8.358-0.182,8.903-0.271c0.818-0.09,1.091-0.273,1.091-1.816v-3.271
		c0-3.453-0.182-6.451-0.636-7.449c-0.818-1.818-2.453-2.363-4.815-2.908c-0.728-0.182-0.636-1.182,0.362-1.182
		c2.998,0,4.816,0.273,7.178,0.273c2.635,0,4.815-0.273,8.086-0.273c1,0,1,1,0.182,1.182c-2.362,0.545-3.725,1.271-3.997,2.453
		c-0.454,1.545-0.727,3.09-0.727,9.721v10.721c0,6.996,0.272,8.359,0.636,10.176c0.363,2.09,1.998,2.725,5.179,3.635
		c0.727,0.182,0.727,1.18-0.364,1.18c-3.179,0-5.904-0.271-8.631-0.271c-2.543,0-4.451,0.271-6.904,0.271
		c-1.09,0-1.09-0.908-0.363-1.18c2.362-0.729,3.452-1,4.18-2.908c0.363-1.182,0.636-3.543,0.636-8.902v-4.453
		c0-1.182-0.272-1.453-0.999-1.543c-0.818-0.092-1.908-0.184-9.357-0.184h-1.182c-6.542,0-7.269,0.092-7.904,0.184
		c-1.09,0.182-1.182,0.271-1.182,1.906v3.271c0,4.814,0.183,7.631,0.455,8.902c0.545,2.092,2.271,3.09,4.633,3.727
		c0.818,0.271,0.818,1.18-0.363,1.18c-2.181,0-5.451-0.271-7.904-0.271c-2.816,0-4.451,0.271-6.995,0.271
		c-0.999,0-0.909-0.816-0.182-1.18c3.089-1.182,3.997-2.09,4.27-3.361c0.183-1,0.455-2.545,0.455-9.268V27.435
		c0-3.088-0.091-6.994-0.546-8.812c-0.363-1.453-1.635-2.361-5.088-3.361c-0.636-0.182-0.727-1.182,0.182-1.182
		c2.998,0,4.997,0.273,7.451,0.273c2.998,0,4.633-0.273,7.994-0.273c1.09,0,1.09,1,0.273,1.182c-2.998,0.727-3.635,1.727-4.09,3.09
		c-0.453,1.271-0.545,9.176-0.545,10.9c0,1.182,0,1.455,0.637,1.545c0.636,0.092,1.362,0.182,7.812,0.182H162.246z"/>
	<path fill="#646168" d="M201.68,28.706c0-5.449,0-7.176-0.364-9.447c-0.363-2.361-2.361-3.361-4.633-3.906
		c-1-0.273-0.908-1.273,0.09-1.273c2.998,0,5.088,0.273,7.905,0.273h9.357c4.815,0,7.904-0.092,8.722-0.363
		c0.454-0.273,0.818-0.363,0.908-0.363c0.182,0,0.455,0.182,0.363,0.635c-0.453,2.182-0.635,5.543-0.453,7.814
		c0.09,1.182-1.091,1.361-1.273,0.271c-0.362-1.998-1.725-3.996-3.451-4.451c-1.818-0.545-3.453-0.635-6.724-0.635h-2.362
		c-1.908,0-2.09,0.182-2.271,1.635c-0.091,0.818-0.183,3.27-0.183,6.086v4.906c0,1.09,0,1,1.908,1.182h1.908
		c5.088,0,7.178-0.273,7.995-0.545c1.09-0.363,1.816-1.182,2.089-1.635c0.272-0.455,0.909-0.273,0.818,0.361
		c-0.182,1.455-0.455,3.727-0.455,9.086c0,0.727-0.998,0.818-1.09,0.092c-0.091-0.545-0.363-1.363-0.908-2.363
		c-0.908-1.545-3.18-2.09-7.904-2.09h-2.725c-1.363,0-1.637,0.092-1.637,1.182v4.27c0,6.361,0.183,8.633,0.818,9.539
		c0.636,1,2.635,1.182,6.269,1.182c2.181,0,4.36-0.09,5.724-0.363c1.362-0.182,2.453-0.818,3.361-1.725
		c0.727-0.91,1.271-2.271,1.635-3.363c0.273-0.727,1.182-0.635,1.182,0.092c0,0.908-0.363,4.361-0.908,7.086
		c-0.273,1.182-0.818,1.271-3.271,1.271c-2.817,0-14.354-0.271-18.807-0.271c-2.635,0-4.997,0.271-8.358,0.271
		c-1,0-1-1.09-0.272-1.18c3.089-0.637,5.905-1.182,6.541-3.727c0.183-0.908,0.455-2.816,0.455-9.811V28.706z"/>
	<path fill="#646168" d="M244.016,24.528c0-1,0-2.09-0.09-3.271c-0.092-1.543-0.092-2.361-0.818-3.361
		c-6.723-8.449-14.353-14.99-23.893-14.99c-6.724,0-9.812,2.816-10.538,6.904c-0.182,0.637-0.818,0.637-1.273,0.273
		c-0.453-0.363-0.545-1.271-0.09-2.363c1.816-4.27,6.996-7.721,14.172-7.721c12.357,0,20.714,8.176,28.98,17.443
		c4.27,4.814,11.629,13.9,19.896,24.619c0.908,1.182,1.18,1.363,1.18,0.363v-9.084c0-5.633-0.271-8.541-0.635-11.902
		c-0.453-4.27-1.453-4.996-5.906-6.178c-0.908-0.182-0.908-1.182,0.184-1.182c2.451,0,5.086,0.273,7.812,0.273
		c2.361,0,4.543-0.273,6.359-0.273c1.271,0,1.271,0.818,0.271,1.182c-2.088,0.908-3.814,1.816-4.451,5.088
		c-0.453,2.635-0.908,7.449-0.908,13.445v6.541c0,6.814,0.182,10.721,0.273,11.902c0.092,1.271-0.637,1.271-0.818,1.271
		c-0.363,0-0.727-0.09-1.09-0.271s-1-0.545-1.453-0.908c-1.09-0.908-2-1.818-2.998-3.363c-4.271-6.631-14.537-19.26-20.441-25.891
		c-0.545-0.545-0.727-0.545-0.818,0.727c-0.09,1.18-0.09,2.816-0.09,6.814v7.721c0,10.721,1.727,11.902,3.633,12.719l2.361,0.91
		c1,0.453,1,1.18-0.182,1.18c-2.18,0-4.541-0.271-7.084-0.271s-5.178,0.271-7.359,0.271c-1.09,0-0.998-0.816-0.182-1.18l1.908-0.729
		c1.455-0.545,2.816-1.635,3.271-3.088c0.455-1.727,0.816-7.449,0.816-14.174V24.528z"/>
	<path fill="#646168" d="M310.247,14.353c3.361,0,5.27-0.092,6.541-0.092c1.637-0.09,3.361-0.635,4.543-1.453
		c0.545-0.363,1.182-0.09,1,0.545c-1,2.453-1,4.816-1.182,8.178c-0.092,0.816-0.908,1-1.271,0.182
		c-0.637-1.637-1.271-3.18-3.543-3.816c-1.545-0.363-3.635-0.635-7.904-0.635c-1.182,0-1.273,0.271-1.361,0.998
		c-0.184,0.818-0.365,3.998-0.365,9.994v8.631c0,6.088,0,8.357,0.273,10.539c0.453,2.998,1.998,3.361,5.541,4.543
		c0.908,0.271,0.816,1.18-0.363,1.18c-3.09,0-5.451-0.271-8.994-0.271c-2.727,0-4.727,0.271-8.449,0.271
		c-1.092,0-1.092-0.908-0.182-1.18c3.18-0.91,5.725-1.273,5.996-3.727c0.18-1.271,0.545-4.088,0.545-10.902v-8.992
		c0-6.451-0.182-8.541-0.182-9.268c0-1.545-0.184-1.816-1.363-1.816c-1.816,0-7.723-0.092-9.812,0.998
		c-1.361,0.818-2.27,2.635-2.635,3.816c-0.273,0.908-1.271,0.727-1.271-0.273c0-0.816,0.547-4.451,0.547-8.268
		c0-1.09,0.635-1.18,1.18-0.635s1.271,0.816,2.271,1.09c0.908,0.271,2.727,0.363,7.904,0.363H310.247z"/>
	<path fill="#646168" d="M334.233,29.616c0-5.451,0-8.904-0.363-10.812c-0.545-2.361-2.545-3.088-4.361-3.543
		c-0.727-0.182-0.637-1.182,0.453-1.182c3.635,0,5.271,0.273,7.994,0.273c2,0,3.635-0.273,6.18-0.273c1.09,0,1.09,1,0.184,1.182
		c-1.547,0.363-3.635,1.09-4,3.271c-0.453,2.18-0.453,5.633-0.453,11.084v8.086c0,5.449,0,8.721,0.545,10.992
		c0.453,2.09,2.361,2.816,4.543,3.271c0.816,0.182,0.816,1.18-0.273,1.18c-2.998,0-5.178-0.271-7.723-0.271
		c-2.18,0-4.451,0.271-7.268,0.271c-1,0-1.092-0.998-0.182-1.18c1.816-0.273,3.906-1.182,4.27-2.816
		c0.455-2.727,0.455-5.998,0.455-11.447V29.616z"/>
	<path fill="#646168" d="M362.854,28.253c0-5.541-0.182-7.633-0.365-9.086c-0.271-1.545-0.906-2.18-5.178-2.906
		c-0.727-0.092-0.727-1,0.092-1.09c2.635-0.273,8.812-1.182,16.533-1.182c8.086,0,13.447,1.453,16.898,4.361
		c3.543,3.088,5.453,7.449,5.453,13.445c0,8.812-3.998,13.445-9.268,16.99c-6.27,4.088-13.9,4.359-16.627,4.359
		c-1.816,0-3.996-0.09-5.541-0.182c-1.455,0-2.727-0.09-3.361,0c-0.816,0-2,0-2.998,0.092c-0.818,0.09-1-1-0.182-1.182
		c1.998-0.363,3.361-1.271,3.906-3.27c0.363-1.363,0.637-3.998,0.637-11.447V28.253z M368.487,39.155
		c0,5.541,0.273,8.176,0.545,9.084c0.271,0.818,1,1.363,1.451,1.455c0.729,0.182,2.637,0.363,4.271,0.363
		c3.635,0,7.723-0.818,10.176-2.635c3.361-2.635,5.178-7.268,5.178-13.629c0-10.084-5.449-17.352-17.625-17.352
		c-1.09,0-2,0.09-2.543,0.273c-0.455,0.182-0.908,0.361-1.092,1.635c-0.18,0.998-0.361,3.361-0.361,10.629V39.155z"/>
	<path fill="#646168" d="M412.006,28.706c0-5.449,0-7.176-0.363-9.447c-0.363-2.361-2.361-3.361-4.633-3.906
		c-1-0.273-0.908-1.273,0.09-1.273c2.998,0,5.088,0.273,7.904,0.273h9.357c4.814,0,7.904-0.092,8.721-0.363
		c0.457-0.273,0.82-0.363,0.908-0.363c0.184,0,0.455,0.182,0.363,0.635c-0.451,2.182-0.635,5.543-0.451,7.814
		c0.088,1.182-1.092,1.361-1.273,0.271c-0.363-1.998-1.727-3.996-3.453-4.451c-1.816-0.545-3.451-0.635-6.723-0.635h-2.363
		c-1.906,0-2.088,0.182-2.27,1.635c-0.09,0.818-0.182,3.27-0.182,6.086v4.906c0,1.09,0,1,1.908,1.182h1.906
		c5.09,0,7.178-0.273,7.996-0.545c1.09-0.363,1.818-1.182,2.09-1.635c0.271-0.455,0.908-0.273,0.818,0.361
		c-0.184,1.455-0.455,3.727-0.455,9.086c0,0.727-1,0.818-1.092,0.092c-0.09-0.545-0.363-1.363-0.908-2.363
		c-0.906-1.545-3.178-2.09-7.902-2.09h-2.727c-1.363,0-1.635,0.092-1.635,1.182v4.27c0,6.361,0.182,8.633,0.818,9.539
		c0.635,1,2.633,1.182,6.268,1.182c2.18,0,4.361-0.09,5.723-0.363c1.363-0.182,2.455-0.818,3.363-1.725
		c0.727-0.91,1.271-2.271,1.635-3.363c0.273-0.727,1.18-0.635,1.18,0.092c0,0.908-0.363,4.361-0.906,7.086
		c-0.273,1.182-0.818,1.271-3.271,1.271c-2.816,0-14.355-0.271-18.807-0.271c-2.635,0-4.996,0.271-8.359,0.271
		c-0.998,0-0.998-1.09-0.271-1.18c3.09-0.637,5.906-1.182,6.543-3.727c0.18-0.908,0.453-2.816,0.453-9.811V28.706z"/>
	<path fill="#646168" d="M467.426,14.989c0.908,0.635,1,1.453,1,1.908c0,0.453-0.092,0.908-0.271,1.635
		c-0.092,0.727-0.273,1.908-0.273,3.543c0,1-1.182,1-1.271-0.092c-0.092-0.727-0.455-1.816-1.635-3.18
		c-1.545-1.816-3.635-2.725-6.178-2.725c-3.09,0-5.361,2.09-5.361,5.723c0,4.998,3.725,6.904,7.541,8.268
		c5.359,1.908,9.992,3.906,9.992,10.449c0,5.086-3.18,8.539-5.633,10.357c-2.816,2.088-5.996,3.088-8.992,3.088
		c-2.908,0-5.27-0.637-6.996-1.635c-1.637-1.092-2.637-2.182-3-3.453c-0.18-0.637,0.273-1.635,0.729-2.271
		c0.455-0.727,1.182-2.725,1.543-3.543c0.273-0.637,1.092-0.545,1.184,0.273c0,0.545,0,1.361,0.635,2.725
		c1.18,2.453,5.088,4.633,8.631,4.633c4.27,0,6.723-2.361,6.723-6.994c0-4.816-3.543-7.088-8.357-8.812
		c-6.18-2.182-9.086-5.088-9.086-9.812c0-2.361,0.727-5.18,3.453-7.812c2.18-2.182,5.633-3.998,9.539-3.998
		C464.883,13.263,466.61,14.444,467.426,14.989z"/>
</g>
<g>
	<path fill="#5B9DA6" d="M142.168,72.513h-1.001l3.671-8.439h0.834l3.671,8.439h-1.001l-0.93-2.217h-4.315L142.168,72.513z
		 M143.419,69.509h3.659l-1.823-4.434L143.419,69.509z"/>
	<path fill="#5B9DA6" d="M153.686,64.073h2.801c2.11,0,4.434,1.407,4.434,4.22c0,2.813-2.324,4.22-4.434,4.22h-2.801V64.073z
		 M154.544,71.726h1.668c2.575,0,3.779-1.692,3.779-3.433c0-1.739-1.204-3.434-3.779-3.434h-1.668V71.726z"/>
	<path fill="#5B9DA6" d="M166.383,72.513c-0.036-0.298-0.036-0.596-0.036-0.894h-0.024c-0.345,0.607-1.132,1.037-1.871,1.037
		c-1.418,0-2.098-0.799-2.098-2.182v-3.54h0.787v3.087c0,1.239,0.346,1.92,1.514,1.92c0.167,0,1.693-0.107,1.693-2.146v-2.86h0.787
		v4.351c0,0.298,0.036,0.822,0.06,1.228H166.383z"/>
	<path fill="#5B9DA6" d="M169.734,66.935c0.036,0.298,0.036,0.596,0.036,0.894h0.024c0.345-0.608,1.132-1.036,1.871-1.036
		c1.419,0,2.098,0.798,2.098,2.181v3.54h-0.787v-3.087c0-1.239-0.346-1.92-1.514-1.92c-0.167,0-1.692,0.107-1.692,2.146v2.86h-0.787
		v-4.351c0-0.298-0.036-0.822-0.06-1.228H169.734z"/>
	<path fill="#5B9DA6" d="M176.042,73.634c0.464,0.619,1.24,1.024,2.133,1.024c1.598,0,2.169-0.989,2.169-2.192v-1.002h-0.023
		c-0.501,0.751-1.275,1.049-2.086,1.049c-1.609,0-2.909-1.203-2.909-2.837c0-1.621,1.192-2.884,2.837-2.884
		c0.667,0,1.514,0.202,2.158,1.072h0.023v-0.93h0.787v5.531c0,1.215-0.489,2.908-2.992,2.908c-1.109,0-1.967-0.358-2.683-1.121
		L176.042,73.634z M178.259,71.798c1.145,0,2.157-0.858,2.11-2.146c0-1.168-0.799-2.146-2.11-2.146
		c-1.168,0-2.075,0.979-2.075,2.146S177.091,71.798,178.259,71.798z"/>
	<path fill="#5B9DA6" d="M183.446,69.938c0.096,1.12,0.942,2.003,2.05,2.003c0.834,0,1.478-0.465,1.788-0.967l0.608,0.502
		c-0.656,0.833-1.478,1.18-2.396,1.18c-1.657,0-2.884-1.252-2.884-2.933s1.228-2.932,2.813-2.932c1.692,0.011,2.67,1.263,2.67,2.789
		v0.357H183.446z M187.236,69.295c0-1.062-0.679-1.789-1.812-1.789c-1.025,0-1.955,0.87-1.955,1.789H187.236z"/>
	<path fill="#5B9DA6" d="M192.197,72.656c-1.729,0-2.956-1.252-2.956-2.933s1.228-2.932,2.956-2.932c1.74,0,2.968,1.251,2.968,2.932
		S193.937,72.656,192.197,72.656z M192.197,67.506c-1.288,0-2.098,0.966-2.098,2.218c0,1.251,0.811,2.218,2.098,2.218
		c1.299,0,2.11-0.967,2.11-2.218C194.307,68.472,193.496,67.506,192.197,67.506z"/>
	<path fill="#5B9DA6" d="M197.348,66.935c0.036,0.298,0.036,0.596,0.036,0.894h0.024c0.345-0.608,1.132-1.036,1.871-1.036
		c1.419,0,2.098,0.798,2.098,2.181v3.54h-0.787v-3.087c0-1.239-0.346-1.92-1.514-1.92c-0.167,0-1.692,0.107-1.692,2.146v2.86h-0.787
		v-4.351c0-0.298-0.036-0.822-0.06-1.228H197.348z"/>
	<path fill="#5B9DA6" d="M206.183,68.258c-0.238-0.453-0.631-0.752-1.204-0.752c-0.548,0-1.157,0.238-1.157,0.835
		c0,0.524,0.37,0.715,1.097,0.882l0.799,0.191c0.775,0.179,1.359,0.738,1.359,1.525c0,1.216-1.085,1.717-2.17,1.717
		c-0.846,0-1.621-0.298-2.146-1.085l0.679-0.465c0.322,0.5,0.811,0.835,1.466,0.835c0.644,0,1.312-0.286,1.312-0.93
		c0-0.562-0.477-0.752-1.061-0.895l-0.763-0.179c-0.381-0.096-1.43-0.405-1.43-1.467c0-1.155,1.013-1.68,2.062-1.68
		c0.775,0,1.502,0.273,1.86,1L206.183,68.258z"/>
	<path fill="#5B9DA6" d="M217.068,70.558l1.896,1.955h-1.216l-1.191-1.239c-0.692,0.906-1.431,1.454-2.575,1.454
		c-1.407,0-2.646-0.894-2.646-2.408c0-1.24,0.906-2.014,1.919-2.491c-0.501-0.536-0.989-1.204-0.989-1.979
		c0-1.264,0.918-1.991,2.11-1.991c1.121,0,2.038,0.668,2.038,1.896c0,1.108-0.989,1.741-1.859,2.193l1.943,2.003l1.156-2.003h0.965
		L217.068,70.558z M213.79,68.365c-1.109,0.619-1.526,1.096-1.526,1.966c0,0.954,0.81,1.61,1.729,1.61
		c0.918,0,1.478-0.549,2.026-1.24L213.79,68.365z M214.386,64.646c-0.704,0-1.264,0.477-1.264,1.24c0,0.571,0.607,1.274,0.881,1.514
		c0.644-0.37,1.55-0.775,1.55-1.646C215.554,65.087,215.03,64.646,214.386,64.646z"/>
	<path fill="#5B9DA6" d="M223.496,64.073h2.801c2.11,0,4.434,1.407,4.434,4.22c0,2.813-2.324,4.22-4.434,4.22h-2.801V64.073z
		 M224.354,71.726h1.669c2.574,0,3.778-1.692,3.778-3.433c0-1.739-1.204-3.434-3.778-3.434h-1.669V71.726z"/>
	<path fill="#5B9DA6" d="M232.248,68.674c0-0.5-0.024-0.93-0.048-1.739h0.775v1.036h0.023c0.227-0.595,0.811-1.179,1.788-1.179
		c0.227,0,0.417,0.023,0.584,0.07l-0.154,0.775c-0.096-0.035-0.239-0.06-0.453-0.06c-1.192,0-1.729,1.036-1.729,1.788v3.146h-0.787
		V68.674z"/>
	<path fill="#5B9DA6" d="M239.699,69.092v-0.143c0-0.966-0.465-1.443-1.431-1.443c-0.656,0-1.229,0.227-1.705,0.656l-0.477-0.56
		c0.514-0.524,1.312-0.811,2.361-0.811c1.096,0,2.037,0.619,2.037,1.979v2.49c0,0.43,0.049,0.954,0.096,1.252h-0.763
		c-0.048-0.273-0.071-0.608-0.071-0.906h-0.024c-0.453,0.74-1.073,1.05-1.967,1.05c-0.989,0-1.919-0.549-1.919-1.634
		c0-1.812,2.134-1.931,3.469-1.931H239.699z M239.293,69.735c-0.799,0-2.6,0.06-2.6,1.18c0,0.74,0.68,1.026,1.312,1.026
		c1.145,0,1.692-0.811,1.692-1.801v-0.405H239.293z"/>
	<path fill="#5B9DA6" d="M242.739,73.634c0.466,0.619,1.24,1.024,2.135,1.024c1.597,0,2.169-0.989,2.169-2.192v-1.002h-0.024
		c-0.5,0.751-1.273,1.049-2.086,1.049c-1.608,0-2.908-1.203-2.908-2.837c0-1.621,1.191-2.884,2.837-2.884
		c0.668,0,1.515,0.202,2.157,1.072h0.024v-0.93h0.787v5.531c0,1.215-0.489,2.908-2.992,2.908c-1.109,0-1.966-0.358-2.682-1.121
		L242.739,73.634z M244.958,71.798c1.145,0,2.156-0.858,2.109-2.146c0-1.168-0.8-2.146-2.109-2.146c-1.17,0-2.075,0.979-2.075,2.146
		S243.788,71.798,244.958,71.798z"/>
	<path fill="#5B9DA6" d="M252.265,72.656c-1.729,0-2.956-1.252-2.956-2.933s1.228-2.932,2.956-2.932c1.74,0,2.968,1.251,2.968,2.932
		S254.005,72.656,252.265,72.656z M252.265,67.506c-1.287,0-2.098,0.966-2.098,2.218c0,1.251,0.811,2.218,2.098,2.218
		c1.3,0,2.11-0.967,2.11-2.218C254.375,68.472,253.565,67.506,252.265,67.506z"/>
	<path fill="#5B9DA6" d="M257.417,66.935c0.035,0.298,0.035,0.596,0.035,0.894h0.024c0.346-0.608,1.132-1.036,1.871-1.036
		c1.419,0,2.098,0.798,2.098,2.181v3.54h-0.787v-3.087c0-1.239-0.345-1.92-1.514-1.92c-0.166,0-1.692,0.107-1.692,2.146v2.86h-0.787
		v-4.351c0-0.298-0.035-0.822-0.06-1.228H257.417z"/>
	<path fill="#5B9DA6" d="M266.25,68.258c-0.238-0.453-0.631-0.752-1.203-0.752c-0.549,0-1.157,0.238-1.157,0.835
		c0,0.524,0.37,0.715,1.098,0.882l0.798,0.191c0.775,0.179,1.359,0.738,1.359,1.525c0,1.216-1.085,1.717-2.169,1.717
		c-0.847,0-1.622-0.298-2.146-1.085l0.68-0.465c0.321,0.5,0.811,0.835,1.467,0.835c0.644,0,1.311-0.286,1.311-0.93
		c0-0.562-0.477-0.752-1.062-0.895l-0.763-0.179c-0.381-0.096-1.43-0.405-1.43-1.467c0-1.155,1.014-1.68,2.062-1.68
		c0.773,0,1.501,0.273,1.859,1L266.25,68.258z"/>
	<path fill="#5B9DA6" d="M273.262,67.697h0.44c1.002,0,1.849-0.43,1.849-1.55c0-0.906-0.584-1.431-1.562-1.431
		c-0.703,0-1.263,0.334-1.608,0.93l-0.752-0.381c0.501-0.906,1.312-1.336,2.337-1.336c1.323,0,2.443,0.787,2.443,2.194
		c0,0.917-0.655,1.681-1.431,1.931l0.036,0.024c0.965,0.202,1.621,1.084,1.621,2.146c0,1.561-1.228,2.432-2.694,2.432
		c-1.239,0-2.193-0.513-2.658-1.704l0.906-0.275c0.286,0.8,0.811,1.192,1.824,1.192c0.965,0,1.764-0.679,1.764-1.669
		c0-1.275-1.037-1.716-2.146-1.716h-0.369V67.697z"/>
	<path fill="#5B9DA6" d="M279.117,72.585c-0.382,0-0.644-0.311-0.644-0.644c0-0.335,0.262-0.645,0.644-0.645
		c0.381,0,0.644,0.31,0.644,0.645C279.76,72.274,279.498,72.585,279.117,72.585z"/>
	<path fill="#5B9DA6" d="M286.317,64.859h-3.457l-0.048,2.54c0.357-0.143,0.751-0.202,1.133-0.202c1.585,0,2.67,1.155,2.67,2.705
		c0,1.634-1.216,2.754-2.837,2.754c-1.061,0-1.979-0.525-2.432-1.502l0.847-0.37c0.321,0.655,0.917,1.085,1.657,1.085
		c1.071,0,1.906-0.835,1.906-1.884c0-1.191-0.87-2.002-2.074-2.002c-0.607,0-1.216,0.179-1.752,0.465l0.084-4.375h4.303V64.859z"/>
	<path fill="#5B9DA6" d="M298.811,71.178c-0.56,0.87-1.728,1.55-3.123,1.55c-2.515,0-4.398-1.872-4.398-4.435
		s1.884-4.435,4.398-4.435c1.049,0,2.182,0.394,2.921,1.336l-0.751,0.56c-0.334-0.548-1.275-1.108-2.17-1.108
		c-2.169,0-3.469,1.705-3.469,3.647c0,1.943,1.3,3.648,3.469,3.648c0.882,0,1.788-0.286,2.42-1.265L298.811,71.178z"/>
	<path fill="#5B9DA6" d="M303.545,69.092v-0.143c0-0.966-0.465-1.443-1.43-1.443c-0.656,0-1.229,0.227-1.705,0.656l-0.477-0.56
		c0.512-0.524,1.312-0.811,2.36-0.811c1.097,0,2.038,0.619,2.038,1.979v2.49c0,0.43,0.047,0.954,0.095,1.252h-0.763
		c-0.048-0.273-0.071-0.608-0.071-0.906h-0.023c-0.453,0.74-1.073,1.05-1.967,1.05c-0.99,0-1.92-0.549-1.92-1.634
		c0-1.812,2.134-1.931,3.469-1.931H303.545z M303.14,69.735c-0.799,0-2.598,0.06-2.598,1.18c0,0.74,0.679,1.026,1.311,1.026
		c1.145,0,1.692-0.811,1.692-1.801v-0.405H303.14z"/>
	<path fill="#5B9DA6" d="M306.157,68.174c0-0.417-0.035-0.822-0.06-1.239h0.847v0.847h0.024c0.381-0.644,1.132-0.989,1.8-0.989
		c0.608,0,1.406,0.202,1.776,1.155c0.321-0.715,1.084-1.155,1.835-1.155c1.419,0,2.099,0.798,2.099,2.181v3.54h-0.787v-3.254
		c0-1.132-0.322-1.753-1.406-1.753c-1.168,0-1.573,1.002-1.573,2.039v2.968h-0.787v-3.254c0-1.132-0.321-1.753-1.406-1.753
		c-0.191,0-1.574,0.107-1.574,2.146v2.86h-0.787V68.174z"/>
	<path fill="#5B9DA6" d="M316.315,66.935h0.787v0.93h0.024c0.513-0.751,1.43-1.072,2.17-1.072c1.739,0,2.968,1.251,2.968,2.932
		s-1.229,2.933-2.968,2.933c-0.74,0-1.657-0.322-2.17-1.073h-0.024v4.363h-0.787V66.935z M319.296,67.506
		c-1.288,0-2.229,0.966-2.229,2.218c0,1.251,0.941,2.218,2.229,2.218c1.298,0,2.109-0.967,2.109-2.218
		C321.406,68.472,320.594,67.506,319.296,67.506z"/>
	<path fill="#5B9DA6" d="M327.176,69.092v-0.143c0-0.966-0.465-1.443-1.43-1.443c-0.656,0-1.228,0.227-1.705,0.656l-0.477-0.56
		c0.513-0.524,1.312-0.811,2.36-0.811c1.097,0,2.038,0.619,2.038,1.979v2.49c0,0.43,0.048,0.954,0.095,1.252h-0.763
		c-0.047-0.273-0.07-0.608-0.07-0.906h-0.024c-0.453,0.74-1.073,1.05-1.967,1.05c-0.99,0-1.92-0.549-1.92-1.634
		c0-1.812,2.135-1.931,3.47-1.931H327.176z M326.771,69.735c-0.798,0-2.598,0.06-2.598,1.18c0,0.74,0.679,1.026,1.311,1.026
		c1.145,0,1.692-0.811,1.692-1.801v-0.405H326.771z"/>
	<path fill="#5B9DA6" d="M330.361,65.361c-0.285,0-0.572-0.239-0.572-0.572c0-0.335,0.287-0.573,0.572-0.573
		c0.286,0,0.572,0.238,0.572,0.573C330.933,65.122,330.647,65.361,330.361,65.361z M330.754,72.513h-0.787v-5.578h0.787V72.513z"/>
	<path fill="#5B9DA6" d="M333.08,73.634c0.465,0.619,1.239,1.024,2.134,1.024c1.597,0,2.17-0.989,2.17-2.192v-1.002h-0.024
		c-0.5,0.751-1.275,1.049-2.086,1.049c-1.609,0-2.909-1.203-2.909-2.837c0-1.621,1.192-2.884,2.838-2.884
		c0.668,0,1.514,0.202,2.157,1.072h0.024v-0.93h0.786v5.531c0,1.215-0.488,2.908-2.992,2.908c-1.108,0-1.967-0.358-2.682-1.121
		L333.08,73.634z M335.296,71.798c1.145,0,2.158-0.858,2.109-2.146c0-1.168-0.798-2.146-2.109-2.146
		c-1.168,0-2.073,0.979-2.073,2.146S334.128,71.798,335.296,71.798z"/>
	<path fill="#5B9DA6" d="M340.687,66.935c0.035,0.298,0.035,0.596,0.035,0.894h0.024c0.346-0.608,1.132-1.036,1.871-1.036
		c1.419,0,2.098,0.798,2.098,2.181v3.54h-0.787v-3.087c0-1.239-0.346-1.92-1.514-1.92c-0.166,0-1.692,0.107-1.692,2.146v2.86h-0.787
		v-4.351c0-0.298-0.035-0.822-0.06-1.228H340.687z"/>
</g>
<g>
</g>
<g>
</g>
<g>
</g>
<g>
</g>
<g>
</g>
<g>
</g>
</svg>
